# xmcd
#
# Track frame offsets:
#	150
#	5147
#	20582
#	51549
#	61186
#	87340
#	130007
#	161916
#	182674
#	210713
#
# Disc length: 3034 seconds
#
# Revision: 0
# Processed by: cddbd v1.5.2PL0 Copyright (c) Steve Scherf et al.
# Submitted via: EasyCDDAExtractor 9.0.0.1
#
DISCID=8b0bd80a
DTITLE=Black Sabbath - Hammersmith Odeon London 22-05-75 Disc 2
DYEAR=1975
DGENRE=Hard Rock
TTITLE0=Guitar Solo
TTITLE1=Sometimes I'm Happy
TTITLE2=Drum Solo II
TTITLE3=Supernaut
TTITLE4=Iron Man
TTITLE5=Jam 
TTITLE6=Black Sabbath
TTITLE7=Spiral Architect
TTITLE8=Embryo - Children Of The Grave
TTITLE9=Paranoid
EXTD=
EXTT0=
EXTT1=
EXTT2=
EXTT3=
EXTT4=
EXTT5=
EXTT6=
EXTT7=
EXTT8=
EXTT9=
PLAYORDER=
